<?xml version="1.0" standalone="no"?>
<!DOCTYPE svg PUBLIC "-//W3C//DTD SVG 20010904//EN"
 "http://www.w3.org/TR/2001/REC-SVG-20010904/DTD/svg10.dtd">
<svg version="1.0" xmlns="http://www.w3.org/2000/svg"
 width="222.000000pt" height="300.000000pt" viewBox="0 0 222.000000 300.000000"
 preserveAspectRatio="xMidYMid meet">

<g transform="translate(0.000000,300.000000) scale(0.100000,-0.100000)"
fill="#000000" stroke="none">
<path d="M987 2530 c-221 -40 -413 -154 -548 -323 -62 -78 -59 -81 83 -75 67
3 136 1 154 -4 65 -17 83 -123 30 -176 -19 -20 -39 -26 -102 -33 -44 -4 -85
-8 -92 -8 -8 -1 -12 -10 -10 -23 3 -21 10 -24 69 -28 77 -6 104 -24 113 -74 9
-46 -13 -108 -44 -123 -14 -7 -50 -13 -81 -13 -67 0 -69 -3 -69 -101 0 -44 -6
-81 -16 -100 -16 -32 -66 -59 -109 -59 -30 0 -30 0 -4 -53 65 -127 201 -262
343 -342 68 -38 215 -89 289 -99 61 -9 82 -44 74 -123 -5 -52 -5 -53 21 -53
23 0 33 11 67 70 21 39 46 77 55 85 8 7 43 18 77 24 90 14 217 61 300 109 91
53 220 175 277 261 113 170 159 388 123 581 l-12 65 -50 -3 c-91 -6 -84 13
-87 -222 -3 -238 -8 -253 -86 -278 -35 -12 -45 -11 -74 2 -59 28 -65 49 -71
275 -7 221 -7 221 -64 221 -75 0 -133 50 -133 115 0 96 49 118 283 123 l178 4
-27 37 c-111 149 -273 261 -461 317 -70 20 -115 27 -218 29 -71 2 -152 0 -178
-5z m280 -401 c59 -19 82 -98 46 -159 -21 -37 -52 -50 -116 -50 -76 0 -99 -8
-95 -34 3 -18 11 -21 58 -24 30 -1 65 -7 76 -13 63 -32 54 -164 -12 -189 -14
-6 -49 -10 -78 -10 l-54 0 -7 -95 c-8 -107 -23 -136 -80 -155 -43 -14 -108 2
-130 33 -23 33 -22 603 1 653 9 19 26 36 38 39 11 3 77 6 146 8 69 1 136 3
150 4 14 1 39 -3 57 -8z m-682 -869 c0 -59 -3 -70 -17 -70 -13 0 -17 12 -20
65 -3 61 1 72 27 74 6 1 10 -28 10 -69z m125 60 c0 -5 -16 -10 -35 -10 -24 0
-35 -5 -35 -15 0 -10 10 -15 29 -15 42 0 59 -25 40 -58 -8 -15 -23 -29 -34
-31 -17 -3 -17 -1 -6 12 19 24 10 61 -16 65 -18 3 -23 10 -23 33 0 27 2 29 40
29 22 0 40 -4 40 -10z m112 -22 c-4 -28 -2 -30 17 -25 13 3 21 0 21 -8 0 -8
-8 -11 -20 -8 -17 5 -20 0 -20 -31 0 -29 -4 -36 -19 -36 -16 0 -19 9 -20 70
-1 67 0 70 22 70 21 0 23 -4 19 -32z m58 22 c0 -5 -2 -10 -4 -10 -3 0 -8 5
-11 10 -3 6 -1 10 4 10 6 0 11 -4 11 -10z m62 -2 c-14 -14 -16 -86 -3 -106 5
-8 17 -12 27 -10 15 2 20 14 22 51 2 27 -2 55 -9 63 -17 21 9 19 33 -3 28 -25
24 -77 -8 -102 -15 -12 -35 -21 -46 -21 -27 0 -68 45 -68 75 0 26 31 65 52 65
9 0 9 -3 0 -12z m140 -18 c-4 -26 -1 -30 18 -30 19 0 22 4 18 30 -5 32 9 39
30 18 16 -16 15 -23 -3 -42 -14 -14 -14 -18 0 -45 19 -37 19 -41 0 -41 -9 0
-23 16 -32 35 -9 19 -21 35 -26 35 -5 0 -7 -16 -4 -35 5 -30 3 -35 -14 -35
-17 0 -19 7 -19 70 0 61 2 70 18 70 15 0 18 -6 14 -30z m163 20 c-3 -5 -10
-10 -16 -10 -5 0 -9 5 -9 10 0 6 7 10 16 10 8 0 12 -4 9 -10z m65 -60 c0 -63
-2 -70 -20 -70 -18 0 -20 7 -20 70 0 63 2 70 20 70 18 0 20 -7 20 -70z m45 60
c3 -5 2 -10 -4 -10 -5 0 -13 5 -16 10 -3 6 -2 10 4 10 5 0 13 -4 16 -10z m57
-22 c-4 -28 -2 -30 17 -25 13 3 21 0 21 -8 0 -8 -8 -11 -20 -8 -17 5 -20 0
-20 -26 0 -26 4 -31 24 -31 13 0 27 6 29 13 3 7 6 5 6 -5 1 -15 -8 -18 -49
-18 l-50 0 0 70 c0 67 1 70 23 70 21 0 23 -4 19 -32z m58 22 c0 -5 -2 -10 -4
-10 -3 0 -8 5 -11 10 -3 6 -1 10 4 10 6 0 11 -4 11 -10z m62 -22 c-4 -28 -2
-30 17 -25 13 3 21 0 21 -8 0 -8 -8 -11 -21 -8 -20 5 -21 3 -17 -31 3 -31 1
-36 -17 -36 -20 0 -22 6 -22 70 -1 66 0 70 21 70 20 0 22 -4 18 -32z m58 22
c0 -5 -2 -10 -4 -10 -3 0 -8 5 -11 10 -3 6 -1 10 4 10 6 0 11 -4 11 -10z m95
-30 c15 -22 30 -40 32 -40 3 0 3 18 1 40 -2 22 0 40 4 40 5 0 8 -31 8 -70 0
-38 -4 -70 -8 -70 -5 0 -23 20 -41 45 -18 25 -36 45 -40 45 -4 0 -13 11 -19
25 -11 23 -10 25 12 25 16 0 32 -13 51 -40z m-1040 -98 c-8 -8 -25 10 -25 26
0 13 2 13 14 -4 8 -10 13 -21 11 -22z m950 8 c-3 -5 -16 -10 -28 -9 -21 0 -21
1 -2 9 28 12 37 12 30 0z"/>
</g>
</svg>
